<svg xmlns="http://www.w3.org/2000/svg" version="1.1" xmlns:xlink="http://www.w3.org/1999/xlink" xmlns:svgjs="http://svgjs.dev/svgjs" width="1500" height="1500" viewBox="0 0 1500 1500"><rect width="1500" height="1500" fill="#ebe6c8"></rect><g transform="matrix(0.6666666666666666,0,0,0.6666666666666666,249.85778443113782,249.85778443113765)"><svg viewBox="0 0 334 334" data-background-color="#ebe6c8" preserveAspectRatio="xMidYMid meet" height="1500" width="1500" xmlns="http://www.w3.org/2000/svg" xmlns:xlink="http://www.w3.org/1999/xlink"><g id="tight-bounds" transform="matrix(1,0,0,1,0.04749999999998522,0.04750000000001364)"><svg viewBox="0 0 333.90454557049503 333.90454557049503" height="333.90454557049503" width="333.90454557049503"><g><svg></svg></g><g><svg viewBox="0 0 333.90454557049503 333.90454557049503" height="333.90454557049503" width="333.90454557049503"><g><path d="M0 166.952c0-92.205 74.747-166.952 166.952-166.952 92.205 0 166.952 74.747 166.953 166.952 0 92.205-74.747 166.952-166.953 166.953-92.205 0-166.952-74.747-166.952-166.953zM166.952 329.399c89.717 0 162.447-72.73 162.447-162.447 0-89.717-72.73-162.447-162.447-162.447-89.717 0-162.447 72.73-162.447 162.447 0 89.717 72.73 162.447 162.447 162.447z" data-fill-palette-color="tertiary" fill="#f96420" stroke="transparent"></path><ellipse rx="160.27418187383762" ry="160.27418187383762" cx="166.95227278524752" cy="166.95227278524752" fill="#f96420" stroke="transparent" stroke-width="0" fill-opacity="1" data-fill-palette-color="tertiary"></ellipse></g><g transform="matrix(1,0,0,1,109.31887393851491,71.17305217166896)"><svg viewBox="0 0 115.2667976934652 191.55844122715712" height="191.55844122715712" width="115.2667976934652"><g><svg viewBox="0 0 115.2667976934652 191.55844122715712" height="191.55844122715712" width="115.2667976934652"><g><svg viewBox="0 0 213.1584412271571 354.2416337831488" height="191.55844122715712" width="115.2667976934652"><g transform="matrix(1,0,0,1,0,210.78102738334678)"><svg viewBox="0 0 213.1584412271571 143.460606399802" height="143.460606399802" width="213.1584412271571"><g id="textblocktransform"><svg viewBox="0 0 213.1584412271571 143.460606399802" height="143.460606399802" width="213.1584412271571" id="textblock"><g><svg viewBox="0 0 213.1584412271571 92.38957625972624" height="92.38957625972624" width="213.1584412271571"><g transform="matrix(1,0,0,1,0,0)"><svg width="213.1584412271571" viewBox="2.6 -32.52 76.42 33.120000000000005" height="92.38957625972624" data-palette-color="#ebe6c8"><path d="M13.6 0.6L13.6 0.6Q9.98 0.6 7.53-0.86 5.08-2.33 3.84-5.13 2.6-7.93 2.6-11.9L2.6-11.9 2.6-19.45Q2.6-25.75 5.84-29.14 9.08-32.52 15.35-32.52L15.35-32.52Q17.6-32.52 19.44-32.16 21.28-31.8 22.7-31.21 24.13-30.63 25.15-29.98L25.15-29.98 25.53-26.23Q23.8-27.33 21.46-28.15 19.13-28.98 16.05-28.98L16.05-28.98Q11.4-28.98 9.11-26.5 6.83-24.03 6.83-19.38L6.83-19.38 6.83-11.93Q6.83-7.63 8.84-5.29 10.85-2.95 14.88-2.95L14.88-2.95Q16.93-2.95 18.39-3.65 19.85-4.35 20.79-5.5 21.73-6.65 22.15-8.03L22.15-8.03 22.15-15.9 22.83-14.43 15.3-14.43 15.3-17.88 26.2-17.88 26.2-5.25 22.13-5.28Q21.73-3.73 20.75-2.38 19.78-1.03 18.03-0.21 16.28 0.6 13.6 0.6ZM22.15 0L22.33-6.6 26.2-6.6 26.2 0 22.15 0ZM44.85 0L40.7 0 40.7-31.28 44.85-31.28 44.85 0ZM54.42-28.48L31.12-28.48 31.12-31.95 54.42-31.95 54.42-28.48ZM63.97 0L59.82 0 59.82-31.95 63.97-31.95 63.97 0ZM78.65-13.38L62.17-13.38 62.17-16.85 78.65-16.85 78.65-13.38ZM79.02-28.48L61.02-28.48 61.02-31.95 79.02-31.95 79.02-28.48Z" opacity="1" transform="matrix(1,0,0,1,0,0)" fill="#ebe6c8" class="wordmark-text-0" data-fill-palette-color="quaternary" id="text-0"></path></svg></g></svg></g><g transform="matrix(1,0,0,1,0,114.20053786481738)"><svg viewBox="0 0 213.1584412271571 29.260068534984626" height="29.260068534984626" width="213.1584412271571"><g transform="matrix(1,0,0,1,0,0)"><svg width="213.1584412271571" viewBox="3.25 -37.7 276.07 37.900000000000006" height="29.260068534984626" data-palette-color="#ebe6c8"><path d="M27.7-32.35L26.4-30.1Q25.1-31.4 21.7-32.05L21.7-32.05Q20.45-32.3 18.45-32.3 16.45-32.3 14.23-31.35 12-30.4 10.3-28.4L10.3-28.4Q6.65-24 6.65-16 6.65-8 10.3-4.8L10.3-4.8Q12.8-2.55 16.93-2.55 21.05-2.55 24.85-3.6L24.85-3.6 25.1-15.5 27.85-15.5 27.85-2Q25.65-0.6 19.9 0L19.9 0Q18.3 0.2 16.53 0.2 14.75 0.2 12.35-0.38 9.95-0.95 7.9-2.7L7.9-2.7Q3.25-6.65 3.25-15.85 3.25-25.05 7.65-30.08 12.05-35.1 19-35.1L19-35.1 20.6-35Q23.75-34.7 25.43-33.85 27.1-33 27.7-32.35L27.7-32.35ZM36.2-12.3L36.2-11.5Q36.2-2.7 44.6-2.7L44.6-2.7Q48.15-2.7 51.1-3.65L51.1-3.65Q51.85-3.9 52.15-4.05L52.15-4.05 52.9-1.4Q51.15-0.35 46.55 0.1L46.55 0.1Q45.25 0.2 43.8 0.2L43.8 0.2Q39.6 0.2 36.8-1.9L36.8-1.9Q32.95-4.75 32.95-11.4 32.95-18.05 36.42-21.63 39.9-25.2 44.85-25.2 49.8-25.2 52.3-22L52.3-22Q54.2-19.45 54.2-15.25L54.2-15.25Q54.2-14.25 54.1-13.15L54.1-13.15 36.25-13.15Q36.2-12.75 36.2-12.3L36.2-12.3ZM45.05-22.1L45.05-22.1Q41.95-22.1 39.75-20.23 37.55-18.35 36.7-15.4L36.7-15.4 51.25-15.4Q51-20.95 46.95-21.85L46.95-21.85Q46.05-22.1 45.05-22.1ZM61.75-25.25L61.75-22.25Q65.5-25 68.84-25.15L68.84-25.15Q71.9-25.15 73.55-24.4 75.2-23.65 76.27-22.28 77.34-20.9 77.34-18.4L77.34-18.4 77.34 0 74.09 0 74.09-17.55Q74.09-19.4 73.3-20.4L73.3-20.4Q71.7-22.25 68.4-22.25L68.4-22.25Q65.25-22.1 61.75-20.2L61.75-20.2 61.75 0 58.5 0 58.5-25 61.75-25.25ZM86.34-12.3L86.34-11.5Q86.34-2.7 94.74-2.7L94.74-2.7Q98.29-2.7 101.24-3.65L101.24-3.65Q101.99-3.9 102.29-4.05L102.29-4.05 103.04-1.4Q101.29-0.35 96.69 0.1L96.69 0.1Q95.39 0.2 93.94 0.2L93.94 0.2Q89.74 0.2 86.94-1.9L86.94-1.9Q83.09-4.75 83.09-11.4 83.09-18.05 86.57-21.63 90.04-25.2 94.99-25.2 99.94-25.2 102.44-22L102.44-22Q104.34-19.45 104.34-15.25L104.34-15.25Q104.34-14.25 104.24-13.15L104.24-13.15 86.39-13.15Q86.34-12.75 86.34-12.3L86.34-12.3ZM95.19-22.1L95.19-22.1Q92.09-22.1 89.89-20.23 87.69-18.35 86.84-15.4L86.84-15.4 101.39-15.4Q101.14-20.95 97.09-21.85L97.09-21.85Q96.19-22.1 95.19-22.1ZM122.99-24.5L121.69-21.5Q120.89-21.95 119.99-21.95 119.09-21.95 118.99-21.9L118.99-21.9Q117.09-21.9 115.17-20.53 113.24-19.15 111.89-17.45L111.89-17.45 111.89 0 108.64 0 108.64-25 111.89-25.25 111.89-19.65Q113.74-22 115.04-22.95L115.04-22.95Q117.44-24.75 119.64-24.85L119.64-24.85Q119.94-24.9 120.74-24.9 121.54-24.9 122.99-24.5L122.99-24.5ZM126.19-19.9L125.29-22.3Q130.74-25 134.84-25.15L134.84-25.15Q138.09-25.15 139.86-24.33 141.64-23.5 142.74-22.03 143.84-20.55 143.84-17.9L143.84-17.9 143.84 0 140.59 0 140.59-1.9Q133.74 0.2 131.79 0.2L131.79 0.2Q131.69 0.2 131.64 0.2L131.64 0.2Q127.14 0.2 125.49-2.55L125.49-2.55Q124.89-3.55 124.81-4.5 124.74-5.45 124.74-6.1L124.74-6.1Q124.74-7.9 126.14-9.33 127.54-10.75 129.49-11.25L129.49-11.25Q132.79-12.1 140.59-12.75L140.59-12.75 140.59-16.8Q140.59-22.25 134.89-22.25L134.89-22.25Q130.89-22.25 126.19-19.9L126.19-19.9ZM127.79-5.7L127.79-5.7Q127.79-2.1 132.74-2.1L132.74-2.1Q136.69-2.1 140.59-3.8L140.59-3.8 140.59-10.95Q132.79-9.85 130.94-9.25L130.94-9.25Q127.79-8.25 127.79-5.7ZM159.19-3.6L159.78-0.9Q158.89 0 156.53 0L156.53 0Q153.24 0 152.09-1.7L152.09-1.7Q150.14-3.55 150.14-6.7L150.14-6.7 150.14-22.1 147.34-22.1 147.78-25 150.14-25 150.14-29.95 153.39-30.25 153.39-25 159.19-25 159.19-22.1 153.39-22.1 153.39-5.9Q153.39-3 156.39-3L156.39-3Q157.69-3 159.19-3.6L159.19-3.6ZM165.73-12.3L165.73-11.5Q165.73-2.7 174.13-2.7L174.13-2.7Q177.68-2.7 180.63-3.65L180.63-3.65Q181.38-3.9 181.68-4.05L181.68-4.05 182.43-1.4Q180.68-0.35 176.08 0.1L176.08 0.1Q174.78 0.2 173.33 0.2L173.33 0.2Q169.13 0.2 166.33-1.9L166.33-1.9Q162.48-4.75 162.48-11.4 162.48-18.05 165.96-21.63 169.43-25.2 174.38-25.2 179.33-25.2 181.83-22L181.83-22Q183.73-19.45 183.73-15.25L183.73-15.25Q183.73-14.25 183.63-13.15L183.63-13.15 165.78-13.15Q165.73-12.75 165.73-12.3L165.73-12.3ZM174.58-22.1L174.58-22.1Q171.48-22.1 169.28-20.23 167.08-18.35 166.23-15.4L166.23-15.4 180.78-15.4Q180.53-20.95 176.48-21.85L176.48-21.85Q175.58-22.1 174.58-22.1ZM205.28-25L205.28-30.9Q205.28-37.7 212.78-37.7L212.78-37.7Q214.73-37.7 216.23-37.3L216.23-37.3 215.73-34.5Q214.03-34.75 212.85-34.75 211.68-34.75 210.73-34.35L210.73-34.35Q208.53-33.35 208.53-29.75L208.53-29.75 208.53-25 214.73-25 214.73-22.1 208.53-22.1 208.53 0 205.28 0 205.28-22.1 202.48-22.1 202.93-25 205.28-25ZM219.48-25L222.73-25.25 222.73 0 219.48 0 219.48-25ZM220.98-31.7Q219.98-31.7 219.45-32.35 218.93-33 218.93-34 218.93-35 219.5-35.63 220.08-36.25 221.08-36.25 222.08-36.25 222.7-35.63 223.33-35 223.33-33.9 223.33-32.8 222.65-32.25 221.98-31.7 220.98-31.7ZM233.07 0L229.82 0 229.82-37.25 233.07-37.5 233.07 0ZM240.17-12.3L240.17-11.5Q240.17-2.7 248.57-2.7L248.57-2.7Q252.12-2.7 255.07-3.65L255.07-3.65Q255.82-3.9 256.12-4.05L256.12-4.05 256.87-1.4Q255.12-0.35 250.52 0.1L250.52 0.1Q249.22 0.2 247.77 0.2L247.77 0.2Q243.57 0.2 240.77-1.9L240.77-1.9Q236.92-4.75 236.92-11.4 236.92-18.05 240.4-21.63 243.87-25.2 248.82-25.2 253.77-25.2 256.27-22L256.27-22Q258.17-19.45 258.17-15.25L258.17-15.25Q258.17-14.25 258.07-13.15L258.07-13.15 240.22-13.15Q240.17-12.75 240.17-12.3L240.17-12.3ZM249.02-22.1L249.02-22.1Q245.92-22.1 243.72-20.23 241.52-18.35 240.67-15.4L240.67-15.4 255.22-15.4Q254.97-20.95 250.92-21.85L250.92-21.85Q250.02-22.1 249.02-22.1ZM277.97-24.5L277.17-21.7Q275.37-22.3 272.27-22.3 269.17-22.3 267.47-21.2 265.77-20.1 265.77-18.48 265.77-16.85 266.77-16.1 267.77-15.35 269.27-14.83 270.77-14.3 272.54-13.8 274.32-13.3 275.82-12.5L275.82-12.5Q279.32-10.7 279.32-7.15 279.32-3.6 276.89-1.7 274.47 0.2 269.82 0.2L269.82 0.2Q267.47 0.2 265.29-0.28 263.12-0.75 261.97-1.6L261.97-1.6 263.07-4.25Q264.22-3.25 267.72-2.8L267.72-2.8Q268.82-2.65 269.97-2.65L269.97-2.65Q272.57-2.65 274.32-3.73 276.07-4.8 276.07-7L276.07-7Q276.07-8.5 275.07-9.35 274.07-10.2 272.57-10.78 271.07-11.35 269.29-11.8 267.52-12.25 266.02-12.98 264.52-13.7 263.52-14.88 262.52-16.05 262.52-18.05L262.52-18.05Q262.52-21.3 265.02-23.25 267.52-25.2 271.72-25.2L271.72-25.2Q272.77-25.2 273.87-25.08 274.97-24.95 275.87-24.85L275.87-24.85 277.97-24.5Z" opacity="1" transform="matrix(1,0,0,1,0,0)" fill="#ebe6c8" class="slogan-text-1" data-fill-palette-color="quaternary" id="text-1"></path></svg></g></svg></g></svg></g></svg></g><g transform="matrix(1,0,0,1,40.713262274387006,0)"><svg viewBox="0 0 131.7319166783831 188.97006577825564" height="188.97006577825564" width="131.7319166783831"><g><svg xmlns="http://www.w3.org/2000/svg" xmlns:xlink="http://www.w3.org/1999/xlink" version="1.1" x="0" y="0" viewBox="16.1 0.1 62.6 89.80000000000001" enable-background="new 0 0 90 90" xml:space="preserve" height="188.97006577825564" width="131.7319166783831" class="icon-icon-0" data-fill-palette-color="quaternary" id="icon-0"><path d="M55.9 5.1L64.8 14 73.7 22.9H55.9zM53.8 0.1V25H78.7L66.2 12.5z" fill="#ebe6c8" data-fill-palette-color="quaternary"></path><g fill="#ebe6c8" data-fill-palette-color="quaternary"><path d="M53.8 25V0.1H16.1V89.9H78.6V25zM74.7 63.1H21.5V59.3H74.7zM74.7 50.4H21.5V46.6H74.7zM74.7 38.4H21.5V34.6H74.7z" fill="#ebe6c8" data-fill-palette-color="quaternary"></path></g></svg></g></svg></g><g></g></svg></g></svg></g></svg></g></svg></g><defs></defs></svg><rect width="333.90454557049503" height="333.90454557049503" fill="none" stroke="none" visibility="hidden"></rect></g></svg></g></svg>